
<svg width="206px" height="200px" viewBox="10 -100 666 684" version="1.1" xmlns="http://www.w3.org/2000/svg" xmlns:xlink="http://www.w3.org/1999/xlink">
    <!-- Generator: Sketch 40.3 (33839) - http://www.bohemiancoding.com/sketch -->
    <desc>Created with Sketch.</desc>
    <defs>
        <path d="M603.056451,616.41476 C600.367945,613.741221 597.649485,611.022748 594.736313,608.319254 C569.641101,585.133603 533.432401,575.839872 500.279162,584.002779 C484.769707,587.829609 470.188872,595.34847 458.094342,605.735581 C453.825685,609.382678 449.931471,613.276909 446.089679,617.141184 C440.008715,623.259619 434.744037,628.546786 428.288629,632.253794 C407.926384,643.786708 382.329417,644.325909 361.540307,633.556864 C352.935592,629.063521 346.285473,622.375928 338.609378,614.632401 L335.134542,611.142571 C322.882746,598.853278 307.64289,589.829147 291.070015,585.058714 C258.21633,575.570272 221.640676,583.463578 195.646799,605.728092 C191.438052,609.322767 187.60375,613.216997 183.81438,617.088761 C178.407414,622.615573 173.749335,627.386006 168.117703,630.860858 C157.910369,637.218938 146.167817,640.821102 134.133199,641.285414 C109.08292,642.161616 92.0382453,630.50139 72.6345762,611.120104 C53.470551,591.963485 26.997386,580.992239 5.68434189e-14,580.992239 L5.68434189e-14,613.621398 C18.4151379,613.621398 36.4782989,621.13277 49.5688483,634.193421 C70.1033372,654.720509 96.4791468,675.689444 135.406307,673.892106 C153.065069,673.240572 170.356876,667.930938 185.327132,658.592273 C194.283824,653.065461 201.113676,646.085802 207.142218,639.937411 C210.265078,636.732159 213.395427,633.519419 216.877753,630.531346 C234.603915,615.313891 259.54935,609.944346 282.030945,616.429738 C293.29421,619.679923 303.673787,625.813336 312.061325,634.230865 L315.431318,637.623339 C324.230743,646.505181 333.344701,655.679089 346.495161,662.531437 C377.057251,678.333027 414.539059,677.576648 444.449616,660.614278 C454.776772,654.720509 462.452866,646.991959 469.245274,640.177056 C472.487955,636.904404 475.71566,633.624264 479.332785,630.531346 C487.593012,623.424375 497.538235,618.309453 508.082567,615.703314 C530.743896,610.109102 555.442198,616.452204 572.554272,632.276261 C575.152911,634.680199 577.594284,637.129071 580.013189,639.540499 C588.206016,647.703405 596.653465,656.135912 608.980149,662.553904 C623.493584,670.042809 639.819327,673.989462 656.182514,673.989462 L656.182514,641.360303 C645.001627,641.360303 633.850695,638.671786 624.010317,633.57933 C616.169467,629.467921 610.095991,623.431864 603.056451,616.41476 L603.056451,616.41476 Z M572.56925,362.765545 C575.182867,365.191951 577.654195,367.640822 580.088078,370.089694 C588.250949,378.200179 596.690909,386.595241 608.950194,392.990766 C623.403718,400.479671 639.736949,404.441302 656.182514,404.441302 L656.182514,371.812143 C644.949205,371.812143 633.813251,369.123626 624.010317,364.038659 C616.184445,359.957206 610.125947,353.928637 603.101384,346.956467 C600.397901,344.245483 597.649485,341.519522 594.736313,338.823516 C575.429999,320.977455 549.533478,311.451568 522.94798,311.818524 C527.366415,286.46858 531.328028,258.15303 510.778562,231.380195 C497.455857,214.080824 480.501049,208.524056 465.530793,203.626313 C456.58159,200.690662 448.134141,197.919767 441.281823,192.789867 C427.180276,182.215533 420.04338,164.167272 423.09884,146.815479 L423.113818,146.80799 L425.382946,133.957029 C425.495279,133.957029 425.615101,133.986984 425.727434,133.986984 C429.059983,133.986984 432.33262,132.961004 435.081036,131.036356 C438.638251,128.550039 441.042179,124.753164 441.791066,120.499466 L452.245533,61.1873381 C453.825685,52.3129856 447.894498,43.8580118 439.020183,42.2928307 L435.118481,41.5888736 L437.417565,28.5132453 C438.990228,19.6388928 433.06653,11.1914079 424.184727,9.61873784 L371.021219,0.242628691 C366.76754,-0.498772911 362.371572,0.474784748 358.829335,2.94612342 C355.27212,5.4324399 352.868192,9.22182587 352.119305,13.4830129 L349.820221,26.5511522 L345.90354,25.8621729 C337.00676,24.282014 328.559311,30.2282046 326.994137,39.1025571 L316.539671,98.4146852 C315.790783,102.668383 316.764337,107.064371 319.243154,110.614112 C321.242683,113.467384 324.193299,115.309655 327.43598,116.403035 L325.121919,129.531086 L325.121919,129.546064 C322.066459,146.882879 309.193087,161.396377 292.305679,166.511299 C284.097874,168.997616 275.216071,168.69057 265.810047,168.398503 C250.083414,167.919213 232.24492,167.32759 213.799826,179.032748 C184.098957,197.912278 178.864235,227.523409 174.25109,253.652198 L154.150955,367.610867 C147.67308,369.872516 140.955562,371.512586 134.155665,371.789676 C109.08292,372.680856 92.0307564,360.95323 72.6345762,341.571944 C53.5005065,322.452769 27.0273415,311.481523 0,311.481523 L0,344.118172 C18.4450934,344.118172 36.5082543,351.607077 49.5688483,364.637772 C69.3769166,384.438437 94.5095733,404.463769 131.39976,404.463769 C132.732779,404.463769 134.095754,404.441302 135.458729,404.381391 C139.630031,404.209146 143.771378,403.692411 147.920213,403.003432 L139.667476,449.756667 C138.918588,454.010365 138.072346,458.443796 137.211125,463.00454 C134.619975,476.581925 131.79667,491.499823 130.456162,506.417722 C107.330523,505.968388 91.0422252,494.727541 72.6195984,476.282368 C53.4405955,457.193149 26.9674305,446.229392 1.33029102e-14,446.229392 L1.33029102e-14,478.858552 C18.4001602,478.858552 36.4782989,486.347457 49.5538706,499.363174 C69.3319833,519.178817 94.4197068,539.219127 131.220027,539.219127 C132.605469,539.219127 134.005888,539.189171 135.428774,539.121771 C153.080047,538.432791 170.341898,533.145624 185.327132,523.821938 C194.283824,518.295126 201.113676,511.315466 207.142218,505.167075 C210.265078,501.961824 213.395427,498.741595 216.877753,495.746033 C234.596426,480.573511 259.541861,475.188988 282.045923,481.659402 C293.279232,484.894609 303.651321,491.028022 312.046347,499.408107 L315.326473,502.703225 C324.163343,511.637489 333.28479,520.871309 346.50265,527.753613 C349.415822,529.266372 352.441326,530.479574 355.466831,531.692777 C355.639075,531.767666 355.758897,531.924933 355.946119,532.007311 C356.088407,532.074711 356.245674,532.037267 356.395451,532.104667 C384.905589,543.135824 417.684385,541.046419 444.442127,525.828964 C454.799238,519.912729 462.505288,512.154224 469.312673,505.301875 C472.532889,502.066668 475.760593,498.786528 479.317807,495.746033 C487.585523,488.654039 497.553212,483.52414 508.082567,480.895534 C530.743896,475.286344 555.42722,481.689358 572.576739,497.520903 C575.190355,499.939819 577.661683,502.411158 580.110545,504.852541 C588.273416,512.978003 596.720864,521.380555 608.957682,527.738635 C623.411207,535.22754 639.744438,539.19666 656.190002,539.19666 L656.190002,506.560011 C644.956693,506.560011 633.82074,503.871495 623.98785,498.77155 C616.191933,494.720053 610.148413,488.698973 603.146317,481.734291 C600.420368,479.030796 597.67944,476.282368 594.743802,473.578874 C569.626123,450.370757 533.469846,441.069537 500.234229,449.224954 C499.710008,449.359755 499.193275,449.576933 498.676543,449.719222 L517.211503,344.574995 C537.16186,342.440657 557.703838,349.045871 572.56925,362.765545 L572.56925,362.765545 Z M356.313073,60.8278707 L386.792785,66.2123934 L413.378283,70.8929591 L413.408239,70.8929591 L417.287475,71.5819384 L412.487108,98.7591749 L351.512706,88.0051072 L356.313073,60.8278707 L356.313073,60.8278707 Z M354.051434,493.581739 C348.786756,489.620108 343.799167,485.104298 338.527001,479.764709 L335.119564,476.34228 C322.822835,464.038009 307.582979,455.036345 291.070015,450.295868 C275.830159,445.89988 259.826438,445.390635 244.421827,448.16153 L280.166216,338.786071 C295.376116,352.588123 316.27756,364.173459 342.743236,373.384813 C347.124227,374.912549 351.505217,375.788751 355.886208,376.777287 C356.058452,376.859665 356.193252,377.009443 356.365496,377.076843 C357.129361,377.361421 357.908203,377.331466 358.694535,377.511199 C366.355652,379.053914 373.971835,380.064916 381.333397,380.064916 C388.313026,380.064916 394.985612,379.233648 401.433531,377.930578 L354.051434,493.581739 L354.051434,493.581739 Z M396.453431,310.874922 C396.401009,310.41061 396.535809,309.983742 396.438453,309.511941 C396.303654,308.957762 395.959165,308.545873 395.779433,308.021649 C395.427456,306.950736 395.015568,305.9622 394.453902,304.996132 C393.914703,304.060018 393.330571,303.22875 392.626617,302.427437 C391.990063,301.686036 391.316064,301.034501 390.559688,300.427899 C389.61609,299.67152 388.642537,299.079897 387.579117,298.555673 C387.107318,298.323517 386.770319,297.919116 386.253586,297.731894 C385.841698,297.574627 385.414833,297.642027 384.980478,297.522204 C383.864636,297.20767 382.763772,297.065381 381.588019,296.983003 C380.51711,296.915603 379.498623,296.908114 378.442692,297.042914 C377.955916,297.110315 377.506583,296.968025 377.012318,297.07287 C361.547796,300.465344 351.610061,293.403307 348.936534,291.164124 C344.952454,287.83905 344.173611,285.023222 344.121189,284.686221 L344.136167,284.648776 C344.997387,282.214882 348.314957,280.747057 353.999012,280.297723 C362.394038,279.683632 373.709725,281.630748 385.422322,285.71969 C409.993313,294.286997 426.161789,315.547999 422.297531,327.043468 L422.17022,327.365491 C418.216095,338.261848 403.874904,346.289954 385.055367,347.233556 L395.764455,318.768228 C395.936699,318.318894 395.86181,317.86207 395.989121,317.397758 C396.288676,316.341823 396.438453,315.315843 396.505853,314.192507 C396.588231,313.054193 396.610697,311.98328 396.453431,310.874922 L396.453431,310.874922 Z M356.904694,329.402473 L352.134283,342.051234 C343.574501,339.025716 335.816029,335.753065 328.821422,332.278213 L332.865413,319.704341 C339.942398,324.49724 348.150202,327.807336 356.904694,329.402473 L356.904694,329.402473 Z M490.25905,309.369652 L462.340533,467.730039 C460.925136,468.81593 459.419873,469.796977 458.071876,470.972735 C453.833174,474.597365 449.976404,478.476617 446.14959,482.318426 C440.046159,488.466817 434.766504,493.776451 428.28114,497.468481 C414.913502,505.092186 399.329158,507.810659 384.298991,505.81861 L452.79222,338.688715 C452.829665,338.59136 452.814687,338.516471 452.844642,338.419115 C452.92702,338.231892 453.031864,338.067136 453.099264,337.879914 C463.725974,307.362626 437.657209,269.363921 396.153876,254.887868 C384.808234,250.948704 367.808493,246.53025 351.490239,247.750941 C325.481385,249.765457 316.389893,265.020356 313.2895,273.924664 C313.259544,273.999553 313.274522,274.074443 313.244567,274.141843 C313.2221,274.201754 313.169678,274.246687 313.1547,274.29911 L300.648283,313.241416 C295.495938,308.306228 291.332125,303.101439 288.456398,297.589604 C288.156843,297.00547 287.640111,296.653491 287.280645,296.129268 C286.44938,294.901088 285.640582,293.672907 284.502273,292.706838 C283.416387,291.785703 282.128301,291.239013 280.847703,290.632412 C280.218638,290.340344 279.73935,289.846077 279.065352,289.621409 C279.027907,289.613921 278.990463,289.621409 278.960508,289.613921 C276.938512,288.962386 274.804183,288.685296 272.654877,288.857541 C270.490593,289.029786 268.408686,289.658854 266.499023,290.639901 C266.484046,290.654878 266.461579,290.654878 266.446601,290.654878 C266.05718,290.864568 265.825025,291.224035 265.45807,291.456191 C264.042673,292.347371 262.664721,293.298462 261.556367,294.60902 C260.612769,295.724867 260.043615,297.042914 259.437016,298.353473 C259.159928,298.952585 258.688129,299.416897 258.478441,300.060943 L204.903046,464.008053 C201.697808,466.164858 198.567459,468.441485 195.631821,470.980224 C191.423075,474.574898 187.588772,478.469129 183.799402,482.340893 C178.392436,487.867704 173.734357,492.638137 168.117703,496.098011 C166.889528,496.861879 165.571486,497.453503 164.305867,498.127504 C165.668842,488.272105 167.503615,478.349306 169.256012,469.115486 C170.147187,464.412454 171.023386,459.836733 171.794739,455.440745 L206.378353,259.3213 C210.924099,233.544488 214.57118,217.211186 231.278855,206.576941 C241.216589,200.256305 251.603656,200.56335 264.739138,201.027662 C275.852625,201.372152 288.418954,201.784042 301.741658,197.747522 C330.281752,189.112815 352.051905,164.571673 357.226716,135.222654 L359.480867,122.566404 L393.165816,128.505106 L390.934132,141.153866 L390.94911,141.153866 C385.759321,170.495397 397.816406,201.005196 421.683443,218.89619 C432.819397,227.261297 444.794104,231.185483 455.338437,234.637868 C467.837366,238.7343 477.715189,241.969507 484.88204,251.278216 C496.954103,266.959983 494.789818,283.570374 490.25905,309.369652 L490.25905,309.369652 Z" id="path-1"></path>
        <filter x="-50%" y="-50%" width="200%" height="200%" filterUnits="objectBoundingBox" id="filter-2">
            <feMorphology radius="0.5" operator="dilate" in="SourceAlpha" result="shadowSpreadOuter1"></feMorphology>
            <feOffset dx="0" dy="2" in="shadowSpreadOuter1" result="shadowOffsetOuter1"></feOffset>
            <feGaussianBlur stdDeviation="2" in="shadowOffsetOuter1" result="shadowBlurOuter1"></feGaussianBlur>
            <feComposite in="shadowBlurOuter1" in2="SourceAlpha" operator="out" result="shadowBlurOuter1"></feComposite>
            <feColorMatrix values="0 0 0 0 0   0 0 0 0 0   0 0 0 0 0  0 0 0 0.5 0" type="matrix" in="shadowBlurOuter1"></feColorMatrix>
        </filter>
    </defs>
    <g id="Shape" stroke="none" fill="none" opacity="0.126890853">
        <use fill="black" fill-opacity="1" filter="url(#filter-2)" xlink:href="#path-1"></use>
        <use stroke="#979797" stroke-width="1" fill="#000000" fill-rule="evenodd" xlink:href="#path-1"></use>
    </g>
</svg>
