<svg width="486px" viewBox="0 0 100 100" version="1.1" xmlns="http://www.w3.org/2000/svg" xmlns:xlink="http://www.w3.org/1999/xlink">
    <!-- Generator: Sketch 3.8.3 (29802) - http://www.bohemiancoding.com/sketch -->
    <title>logo</title>
    <desc>Created with Sketch.</desc>
    <defs></defs>
    <g id="Page-1" stroke="none" stroke-width=".01" fill="none" fill-rule="evenodd">
        <path d="M80.717,82.312 C80.358,81.955 79.995,81.592 79.606,81.231 C76.255,78.135 71.42,76.894 66.993,77.984 C64.922,78.495 62.975,79.499 61.36,80.886 C60.79,81.373 60.27,81.893 59.757,82.409 C58.945,83.226 58.242,83.932 57.38,84.427 C54.661,85.967 51.243,86.039 48.467,84.601 C47.318,84.001 46.43,83.108 45.405,82.074 L44.941,81.608 C43.305,79.967 41.27,78.762 39.057,78.125 C34.67,76.858 29.786,77.912 26.315,80.885 C25.753,81.365 25.241,81.885 24.735,82.402 C24.013,83.14 23.391,83.777 22.639,84.241 C21.276,85.09 19.708,85.571 18.101,85.633 C14.756,85.75 12.48,84.193 9.889,81.605 C7.33,79.047 3.795,77.582 0.19,77.582 L0.19,81.939 C2.649,81.939 5.061,82.942 6.809,84.686 C9.551,87.427 13.073,90.227 18.271,89.987 C20.629,89.9 22.938,89.191 24.937,87.944 C26.133,87.206 27.045,86.274 27.85,85.453 C28.267,85.025 28.685,84.596 29.15,84.197 C31.517,82.165 34.848,81.448 37.85,82.314 C39.354,82.748 40.74,83.567 41.86,84.691 L42.31,85.144 C43.485,86.33 44.702,87.555 46.458,88.47 C50.539,90.58 55.544,90.479 59.538,88.214 C60.917,87.427 61.942,86.395 62.849,85.485 C63.282,85.048 63.713,84.61 64.196,84.197 C65.299,83.248 66.627,82.565 68.035,82.217 C71.061,81.47 74.359,82.317 76.644,84.43 C76.991,84.751 77.317,85.078 77.64,85.4 C78.734,86.49 79.862,87.616 81.508,88.473 C83.446,89.473 85.626,90 87.811,90 L87.811,85.643 C86.318,85.643 84.829,85.284 83.515,84.604 C82.468,84.055 81.657,83.249 80.717,82.312 L80.717,82.312 Z M76.646,48.442 C76.995,48.766 77.325,49.093 77.65,49.42 C78.74,50.503 79.867,51.624 81.504,52.478 C83.434,53.478 85.615,54.007 87.811,54.007 L87.811,49.65 C86.311,49.65 84.824,49.291 83.515,48.612 C82.47,48.067 81.661,47.262 80.723,46.331 C80.362,45.969 79.995,45.605 79.606,45.245 C77.028,42.862 73.57,41.59 70.02,41.639 C70.61,38.254 71.139,34.473 68.395,30.898 C66.616,28.588 64.352,27.846 62.353,27.192 C61.158,26.8 60.03,26.43 59.115,25.745 C57.232,24.333 56.279,21.923 56.687,19.606 L56.689,19.605 L56.992,17.889 C57.007,17.889 57.023,17.893 57.038,17.893 C57.483,17.893 57.92,17.756 58.287,17.499 C58.762,17.167 59.083,16.66 59.183,16.092 L60.579,8.172 C60.79,6.987 59.998,5.858 58.813,5.649 L58.292,5.555 L58.599,3.809 C58.809,2.624 58.018,1.496 56.832,1.286 L49.733,0.034 C49.165,-0.065 48.578,0.065 48.105,0.395 C47.63,0.727 47.309,1.233 47.209,1.802 L46.902,3.547 L46.379,3.455 C45.191,3.244 44.063,4.038 43.854,5.223 L42.458,13.143 C42.358,13.711 42.488,14.298 42.819,14.772 C43.086,15.153 43.48,15.399 43.913,15.545 L43.604,17.298 L43.604,17.3 C43.196,19.615 41.477,21.553 39.222,22.236 C38.126,22.568 36.94,22.527 35.684,22.488 C33.584,22.424 31.202,22.345 28.739,23.908 C24.773,26.429 24.074,30.383 23.458,33.872 L20.774,49.089 C19.909,49.391 19.012,49.61 18.104,49.647 C14.756,49.766 12.479,48.2 9.889,45.612 C7.334,43.059 3.799,41.594 0.19,41.594 L0.19,45.952 C2.653,45.952 5.065,46.952 6.809,48.692 C9.454,51.336 12.81,54.01 17.736,54.01 C17.914,54.01 18.096,54.007 18.278,53.999 C18.835,53.976 19.388,53.907 19.942,53.815 L18.84,60.058 C18.74,60.626 18.627,61.218 18.512,61.827 C18.166,63.64 17.789,65.632 17.61,67.624 C14.522,67.564 12.347,66.063 9.887,63.6 C7.326,61.051 3.791,59.587 0.19,59.587 L0.19,63.944 C2.647,63.944 5.061,64.944 6.807,66.682 C9.448,69.328 12.798,72.004 17.712,72.004 C17.897,72.004 18.084,72 18.274,71.991 C20.631,71.899 22.936,71.193 24.937,69.948 C26.133,69.21 27.045,68.278 27.85,67.457 C28.267,67.029 28.685,66.599 29.15,66.199 C31.516,64.173 34.847,63.454 37.852,64.318 C39.352,64.75 40.737,65.569 41.858,66.688 L42.296,67.128 C43.476,68.321 44.694,69.554 46.459,70.473 C46.848,70.675 47.252,70.837 47.656,70.999 C47.679,71.009 47.695,71.03 47.72,71.041 C47.739,71.05 47.76,71.045 47.78,71.054 C51.587,72.527 55.964,72.248 59.537,70.216 C60.92,69.426 61.949,68.39 62.858,67.475 C63.288,67.043 63.719,66.605 64.194,66.199 C65.298,65.252 66.629,64.567 68.035,64.216 C71.061,63.467 74.357,64.322 76.647,66.436 C76.996,66.759 77.326,67.089 77.653,67.415 C78.743,68.5 79.871,69.622 81.505,70.471 C83.435,71.471 85.616,72.001 87.812,72.001 L87.812,67.643 C86.312,67.643 84.825,67.284 83.512,66.603 C82.471,66.062 81.664,65.258 80.729,64.328 C80.365,63.967 79.999,63.6 79.607,63.239 C76.253,60.14 71.425,58.898 66.987,59.987 C66.917,60.005 66.848,60.034 66.779,60.053 L69.254,46.013 C71.918,45.728 74.661,46.61 76.646,48.442 L76.646,48.442 Z M47.769,8.124 L51.839,8.843 L55.389,9.468 L55.393,9.468 L55.911,9.56 L55.27,13.189 L47.128,11.753 L47.769,8.124 L47.769,8.124 Z M47.467,65.91 C46.764,65.381 46.098,64.778 45.394,64.065 L44.939,63.608 C43.297,61.965 41.262,60.763 39.057,60.13 C37.022,59.543 34.885,59.475 32.828,59.845 L37.601,45.24 C39.632,47.083 42.423,48.63 45.957,49.86 C46.542,50.064 47.127,50.181 47.712,50.313 C47.735,50.324 47.753,50.344 47.776,50.353 C47.878,50.391 47.982,50.387 48.087,50.411 C49.11,50.617 50.127,50.752 51.11,50.752 C52.042,50.752 52.933,50.641 53.794,50.467 L47.467,65.91 L47.467,65.91 Z M53.129,41.513 C53.122,41.451 53.14,41.394 53.127,41.331 C53.109,41.257 53.063,41.202 53.039,41.132 C52.992,40.989 52.937,40.857 52.862,40.728 C52.79,40.603 52.712,40.492 52.618,40.385 C52.533,40.286 52.443,40.199 52.342,40.118 C52.216,40.017 52.086,39.938 51.944,39.868 C51.881,39.837 51.836,39.783 51.767,39.758 C51.712,39.737 51.655,39.746 51.597,39.73 C51.448,39.688 51.301,39.669 51.144,39.658 C51.001,39.649 50.865,39.648 50.724,39.666 C50.659,39.675 50.599,39.656 50.533,39.67 C48.468,40.123 47.141,39.18 46.784,38.881 C46.252,38.437 46.148,38.061 46.141,38.016 L46.143,38.011 C46.258,37.686 46.701,37.49 47.46,37.43 C48.581,37.348 50.092,37.608 51.656,38.154 C54.937,39.298 57.096,42.137 56.58,43.672 L56.563,43.715 C56.035,45.17 54.12,46.242 51.607,46.368 L53.037,42.567 C53.06,42.507 53.05,42.446 53.067,42.384 C53.107,42.243 53.127,42.106 53.136,41.956 C53.147,41.804 53.15,41.661 53.129,41.513 L53.129,41.513 Z M47.848,43.987 L47.211,45.676 C46.068,45.272 45.032,44.835 44.098,44.371 L44.638,42.692 C45.583,43.332 46.679,43.774 47.848,43.987 L47.848,43.987 Z M65.655,41.312 L61.927,62.458 C61.738,62.603 61.537,62.734 61.357,62.891 C60.791,63.375 60.276,63.893 59.765,64.406 C58.95,65.227 58.245,65.936 57.379,66.429 C55.594,67.447 53.513,67.81 51.506,67.544 L60.652,45.227 C60.657,45.214 60.655,45.204 60.659,45.191 C60.67,45.166 60.684,45.144 60.693,45.119 C62.112,41.044 58.631,35.97 53.089,34.037 C51.574,33.511 49.304,32.921 47.125,33.084 C43.652,33.353 42.438,35.39 42.024,36.579 C42.02,36.589 42.022,36.599 42.018,36.608 C42.015,36.616 42.008,36.622 42.006,36.629 L40.336,41.829 C39.648,41.17 39.092,40.475 38.708,39.739 C38.668,39.661 38.599,39.614 38.551,39.544 C38.44,39.38 38.332,39.216 38.18,39.087 C38.035,38.964 37.863,38.891 37.692,38.81 C37.608,38.771 37.544,38.705 37.454,38.675 C37.449,38.674 37.444,38.675 37.44,38.674 C37.17,38.587 36.885,38.55 36.598,38.573 C36.309,38.596 36.031,38.68 35.776,38.811 C35.774,38.813 35.771,38.813 35.769,38.813 C35.717,38.841 35.686,38.889 35.637,38.92 C35.448,39.039 35.264,39.166 35.116,39.341 C34.99,39.49 34.914,39.666 34.833,39.841 C34.796,39.921 34.733,39.983 34.705,40.069 L27.551,61.961 C27.123,62.249 26.705,62.553 26.313,62.892 C25.751,63.372 25.239,63.892 24.733,64.409 C24.011,65.147 23.389,65.784 22.639,66.246 C22.475,66.348 22.299,66.427 22.13,66.517 C22.312,65.201 22.557,63.876 22.791,62.643 C22.91,62.015 23.027,61.404 23.13,60.817 L27.748,34.629 C28.355,31.187 28.842,29.006 31.073,27.586 C32.4,26.742 33.787,26.783 35.541,26.845 C37.025,26.891 38.703,26.946 40.482,26.407 C44.293,25.254 47.2,21.977 47.891,18.058 L48.192,16.368 L52.69,17.161 L52.392,18.85 L52.394,18.85 C51.701,22.768 53.311,26.842 56.498,29.231 C57.985,30.348 59.584,30.872 60.992,31.333 C62.661,31.88 63.98,32.312 64.937,33.555 C66.549,35.649 66.26,37.867 65.655,41.312 L65.655,41.312 Z" id="Shape" fill="#FFFFFF"></path>
    </g>
</svg>
