<?xml version="1.0" encoding="UTF-8"?>
<svg width="16px" height="13px" viewBox="0 0 16 13" version="1.1" xmlns="http://www.w3.org/2000/svg" xmlns:xlink="http://www.w3.org/1999/xlink">
    <!-- Generator: Sketch 41 (35326) - http://www.bohemiancoding.com/sketch -->
    <title>Shape</title>
    <desc>Created with Sketch.</desc>
    <defs></defs>
    <g id="Page-1" stroke="none" stroke-width="1" fill="none" fill-rule="evenodd">
        <path d="M16,1.538 C15.412,1.801 14.778,1.976 14.116,2.054 C14.794,1.648 15.313,1.004 15.56,0.238 C14.926,0.613 14.222,0.888 13.476,1.035 C12.876,0.397 12.023,0.001 11.079,0.001 C9.266,0.001 7.798,1.47 7.798,3.282 C7.798,3.538 7.826,3.788 7.882,4.029 C5.154,3.891 2.735,2.585 1.116,0.598 C0.835,1.082 0.672,1.648 0.672,2.248 C0.672,3.386 1.25,4.392 2.131,4.979 C1.593,4.963 1.087,4.813 0.643,4.57 L0.643,4.611 C0.643,6.202 1.774,7.53 3.277,7.83 C3.002,7.905 2.711,7.946 2.411,7.946 C2.199,7.946 1.995,7.924 1.792,7.887 C2.211,9.19 3.423,10.14 4.858,10.168 C3.733,11.049 2.32,11.574 0.78,11.574 C0.514,11.574 0.255,11.558 -0.004,11.527 C1.452,12.461 3.177,13.002 5.03,13.002 C11.067,13.002 14.371,7.999 14.371,3.661 C14.371,3.517 14.368,3.377 14.362,3.236 C15.003,2.777 15.559,2.198 15.999,1.539 L16,1.538 Z" id="Shape" fill="#FFFFFF"></path>
    </g>
</svg>